<?xml version="1.0" encoding="UTF-8" standalone="no"?>
<!-- Generator: Adobe Illustrator 16.0.0, SVG Export Plug-In . SVG Version: 6.00 Build 0)  -->

<svg
   xmlns:dc="http://purl.org/dc/elements/1.1/"
   xmlns:cc="http://creativecommons.org/ns#"
   xmlns:rdf="http://www.w3.org/1999/02/22-rdf-syntax-ns#"
   xmlns:svg="http://www.w3.org/2000/svg"
   xmlns="http://www.w3.org/2000/svg"
   xmlns:sodipodi="http://sodipodi.sourceforge.net/DTD/sodipodi-0.dtd"
   xmlns:inkscape="http://www.inkscape.org/namespaces/inkscape"
   version="1.1"
   id="Layer_1"
   x="0px"
   y="0px"
   width="466px"
   height="423.891px"
   viewBox="0 0 466 423.891"
   enable-background="new 0 0 466 423.891"
   xml:space="preserve"
   sodipodi:docname="docker.svg"
   inkscape:version="0.92.3 (2405546, 2018-03-11)"
   inkscape:export-filename="/home/jasper/Documents/docker.svg.png"
   inkscape:export-xdpi="96"
   inkscape:export-ydpi="96"><metadata
   id="metadata41"><rdf:RDF><cc:Work
       rdf:about=""><dc:format>image/svg+xml</dc:format><dc:type
         rdf:resource="http://purl.org/dc/dcmitype/StillImage" /><dc:title /></cc:Work></rdf:RDF></metadata><defs
   id="defs39" /><sodipodi:namedview
   pagecolor="#ffffff"
   bordercolor="#666666"
   borderopacity="1"
   objecttolerance="10"
   gridtolerance="10"
   guidetolerance="10"
   inkscape:pageopacity="0"
   inkscape:pageshadow="2"
   inkscape:window-width="1920"
   inkscape:window-height="1023"
   id="namedview37"
   showgrid="false"
   inkscape:zoom="2.2269876"
   inkscape:cx="214.16342"
   inkscape:cy="170.08314"
   inkscape:window-x="0"
   inkscape:window-y="28"
   inkscape:window-maximized="1"
   inkscape:current-layer="g34" />
<rect
   x="-43.5"
   y="37.005"
   display="none"
   fill-rule="evenodd"
   clip-rule="evenodd"
   fill="#E7E7E7"
   width="792"
   height="612"
   id="rect2" />
<g
   id="g34">
	<path
   d="m 185.55859,106.19141 v 47.14648 H 91.267578 v 47.14453 H 44.123047 v 48.19336 H 3.8085938 l -0.6640626,7.12695 c -2.21499995,23.797 1.0508594,47.61257 10.8808598,69.35157 l 4.238281,8.62109 0.476562,0.80664 c 29.083,49.387 80.154313,70.19727 135.820316,70.19727 107.748,0 196.61073,-48.13192 237.42773,-149.79492 27.278,1.426 55.18039,-6.63955 68.52539,-32.68555 l 3.40821,-6.65235 -6.47657,-3.73437 c -15.78,-9.108 -36.80017,-10.35389 -54.70117,-5.08789 -2.205,-19.027 -14.70917,-35.72002 -29.57617,-47.66602 l -5.9043,-4.74609 -4.95703,5.73242 c -9.955,11.513 -12.92245,30.65719 -11.56445,45.36719 1.001,10.815 4.39868,21.78756 11.05469,30.47656 -5.05401,3.039 -10.80279,5.45736 -15.92579,7.19336 -10.425,3.532 -21.74786,5.49414 -32.75586,5.49414 H 289.2793 v -48.19531 h -47.14649 v -94.28906 z"
   id="outline_7_"
   inkscape:connector-curvature="0" />
	<g
   display="none"
   id="g7">
		<path
   display="inline"
   fill="#394D54"
   d="M61.093,319.89c6.023,0,11.763-0.157,17.219-0.464c0.476-0.026,0.932-0.063,1.402-0.092    c0.005-0.002,0.008-0.002,0.012-0.002c13.872-0.855,25.876-2.708,35.902-5.57c0.002-0.002,0.004-0.002,0.006-0.002    c1.823-0.521,3.588-1.07,5.282-1.656c1.894-0.657,2.896-2.725,2.241-4.618c-0.656-1.895-2.722-2.899-4.618-2.24    c-12.734,4.412-29.535,6.842-50.125,7.298c-0.002,0-0.004,0-0.005,0c-10.477,0.232-21.93-0.044-34.352-0.843c0,0,0,0-0.001,0    c-0.635-0.038-1.259-0.075-1.9-0.118c-1.995-0.128-3.731,1.374-3.869,3.375c-0.136,1.999,1.376,3.73,3.375,3.866    c2.537,0.173,5.03,0.321,7.49,0.453c0.392,0.021,0.77,0.034,1.158,0.054l0,0C47.566,319.697,54.504,319.89,61.093,319.89z"
   id="path5" />
	</g>
	<g
   id="Containers_8_"
   style="opacity:1"
   inkscape:export-xdpi="96"
   inkscape:export-ydpi="96">
		
		
		
		
		
		
		
		
		
	</g>
	
	
	
</g>
</svg>